<?xml version="1.0" encoding="utf-8"?>
<!-- Generator: Adobe Illustrator 19.0.0, SVG Export Plug-In . SVG Version: 6.00 Build 0)  -->
<svg version="1.1" id="Layer_1" xmlns="http://www.w3.org/2000/svg" xmlns:xlink="http://www.w3.org/1999/xlink" x="0px" y="0px"
	 viewBox="32 -232 1024 1024" style="enable-background:new 32 -232 1024 1024;" xml:space="preserve">
<style type="text/css">
	.st0{fill:#424E6B;}
</style>
<g>
	<path class="st0" d="M970,28.5L662.9,253.6L970.1,528v-498C970.1,29.5,970,29,970,28.5z"/>
	<path class="st0" d="M609.5,239.8L941-3.1c-1.5-0.2-3-0.7-4.5-0.7H158l328.9,241.4C493.2,242.8,544.7,281.6,609.5,239.8z"/>
	<path class="st0" d="M119.3,20.8c-0.8,2.9-1.5,5.9-1.5,9.1v500.2c0,2.5,0.7,4.9,1.3,7.3l317.6-283.5L119.3,20.8z"/>
	<path class="st0" d="M548.9,301.2c-31.4,0-58.3-10.3-76.7-21.8L153.7,563.8h782.8c2.9,0,5.5-0.7,8.2-1.3L626.9,278.7
		C599.5,294.7,572.9,301.2,548.9,301.2z"/>
</g>
</svg>
