<?xml version="1.0" encoding="utf-8"?>
<!-- Generator: Adobe Illustrator 19.0.0, SVG Export Plug-In . SVG Version: 6.00 Build 0)  -->
<svg version="1.1" id="Layer_1" xmlns="http://www.w3.org/2000/svg" xmlns:xlink="http://www.w3.org/1999/xlink" x="0px" y="0px"
	 viewBox="-455 257 48 48" style="enable-background:new -455 257 48 48;" xml:space="preserve">
<style type="text/css">
	.st0{fill:#424E6B;}
</style>
<g>
	<path class="st0" d="M-418,260.4l2.3,4l-9.8,5.2l-6-2.2c-0.3-0.1-0.6-0.1-0.9,0.1l-8.2,5.6l-3.6-2c-0.4-0.2-0.8-0.2-1.1,0.1
		l-7.5,6.1c-0.4,0.3-0.5,1-0.1,1.4c0.2,0.2,0.5,0.4,0.8,0.4c0.2,0,0.4-0.1,0.6-0.2l6.9-5.7l3.6,1.9c0.3,0.2,0.7,0.2,1-0.1l8.2-5.6
		l5.9,2.2c0.3,0.1,0.6,0.1,0.8-0.1l10.2-5.5l2.6,4.4l2.7-8.4L-418,260.4z"/>
	<rect x="-420" y="271.2" class="st0" width="6.8" height="29.5"/>
	<rect x="-430.8" y="275.2" class="st0" width="6.8" height="25.5"/>
	<rect x="-452.1" y="282.7" class="st0" width="6.8" height="18.1"/>
	<rect x="-441.4" y="278.5" class="st0" width="6.8" height="22.3"/>
</g>
</svg>
