<?xml version="1.0" encoding="utf-8"?>
<!-- Generator: Adobe Illustrator 19.0.0, SVG Export Plug-In . SVG Version: 6.00 Build 0)  -->
<svg version="1.1" id="Layer_1" xmlns="http://www.w3.org/2000/svg" xmlns:xlink="http://www.w3.org/1999/xlink" x="0px" y="0px"
	 viewBox="32 -232 1024 1024" style="enable-background:new 32 -232 1024 1024;" xml:space="preserve">
<style type="text/css">
	.st0{fill:#424E6B;}
</style>
<path class="st0" d="M1030,183.3l-466.4-356c-22-16.8-41.9,0.6-41.9,0.6L55.1,184.1c0,0-18.2,14.3-3.8,33.1l51.5,67.4
	c0,0,13.7,19.8,30.1,5.2l38.1-29v438.9c0,0-2.3,42.3,37.8,40.1l214.1,0.1l0.1-436.3c0-17.9,14.6-32.5,32.5-32.5h175.3
	c17.9,0,32.4,14.6,32.4,32.5L662.9,740l216-0.1c0,0,36.5,2.5,36.5-35.1v-444l36.9,28.2c0,0,16.6,14.6,30.3-3.4l52.6-68.8
	C1035.2,216.9,1054.3,199.6,1030,183.3z"/>
</svg>
