<?xml version="1.0" encoding="utf-8"?>
<!-- Generator: Adobe Illustrator 19.0.0, SVG Export Plug-In . SVG Version: 6.00 Build 0)  -->
<svg version="1.1" id="Layer_1" xmlns="http://www.w3.org/2000/svg" xmlns:xlink="http://www.w3.org/1999/xlink" x="0px" y="0px"
	 viewBox="-455 258.3 48 39.8" style="enable-background:new -455 258.3 48 39.8;" xml:space="preserve">
<style type="text/css">
	.st0{fill:#424E6B;}
</style>
<g>
	<path class="st0" d="M-421.7,266.2c-7.3,0-13.2,4.1-13.2,9.2c0,1.3,0.4,2.5,1.1,3.7l-2.8,5.9c0,0.1,0,0.2,0,0.3
		c0.1,0.1,0.1,0.1,0.2,0.1c0,0,0.1,0,0.1,0l7.5-2.2c2.1,0.9,4.6,1.4,7.1,1.4c7.3,0,13.2-4.1,13.2-9.2
		C-408.5,270.3-414.4,266.2-421.7,266.2z M-427.6,277.5c-0.9,0-1.7-0.8-1.7-1.7c0-0.9,0.8-1.7,1.7-1.7c0.9,0,1.7,0.8,1.7,1.7
		C-425.9,276.7-426.7,277.5-427.6,277.5z M-421.9,277.5c-0.9,0-1.7-0.8-1.7-1.7c0-0.9,0.8-1.7,1.7-1.7c0.9,0,1.7,0.8,1.7,1.7
		C-420.2,276.7-421,277.5-421.9,277.5z M-416.3,277.5c-0.9,0-1.7-0.8-1.7-1.7c0-0.9,0.8-1.7,1.7-1.7c0.9,0,1.7,0.8,1.7,1.7
		C-414.6,276.7-415.3,277.5-416.3,277.5z"/>
	<path class="st0" d="M-445.8,281.6c0.3,1.5,0.9,2.8,1.7,3.7c0.1,0.1,1.2,1.3,2.7,1.3c1,0,1.9-0.4,2.8-1.4l0,0c0,0,0,0,0,0
		c0,0,0,0,0,0l0.4-0.5c0.6-0.9,1.1-2,1.3-3.3c0,0,0.2,0,0.3-0.3c0.8-1.9-0.2-2.9-0.2-2.9c-0.1-0.1-0.2-0.1-0.2-0.1
		c-0.6-2.8-2.3-4.8-4.4-4.8c-2.2,0-4.1,2.3-4.5,5.3c0,0-0.1-0.2-0.3,0c0,0-0.7,1.2,0.2,2.8C-446,281.7-445.8,281.6-445.8,281.6z"/>
	<path class="st0" d="M-437.5,288.3c-0.4-0.7-0.5-1-0.6-1.9c-1,1.1-2.1,1.6-3.2,1.6c0,0-0.1,0-0.1,0c-1.3,0-2.3-0.7-2.9-1.2
		c-0.1,0.7-0.3,0.8-0.6,1.5c0,0-9,0.8-9.1,4.9v3.2h25.7v-3.2C-428.4,289.1-437.5,288.3-437.5,288.3z"/>
</g>
</svg>
