<?xml version="1.0" encoding="utf-8"?>
<!-- Generator: Adobe Illustrator 19.0.0, SVG Export Plug-In . SVG Version: 6.00 Build 0)  -->
<svg version="1.1" id="Layer_1" xmlns="http://www.w3.org/2000/svg" xmlns:xlink="http://www.w3.org/1999/xlink" x="0px" y="0px"
	 viewBox="32 -232 1024 1024" style="enable-background:new 32 -232 1024 1024;" xml:space="preserve">
<style type="text/css">
	.st0{fill:#424E6B;}
</style>
<path class="st0" d="M993-29.5c-74.3-192.3-333.8-79.3-333.8-79.3C260,49.3,146.7,334.5,146.7,334.5
	C1.4,661.9,185.6,699.8,185.6,699.8c16.1,2.3,24.2,2.7,35.7,0.4c121.6-23.7,166.7-149,176.3-198.5c2.7-14.1-0.3-33.3-0.3-33.3
	s-6.4-35.8-74.1-89.7l-11.7-10.8c137.6-245,353.8-301.4,353.8-301.4c61.1,97.1,95.1,93.8,95.1,93.8c97.4,10.9,207-79.6,230.3-127.9
	C1003.6,5.8,993-29.5,993-29.5z"/>
</svg>
